<mxfile host="app.diagrams.net" agent="Mozilla/5.0 (X11; Linux x86_64) AppleWebKit/537.36 (KHTML, like Gecko) Chrome/131.0.0.0 Safari/537.36" version="26.0.6">
  <diagram name="Seite-1" id="pRJWBpabVLnvFzjs6KAc">
    <mxGraphModel dx="819" dy="469" grid="1" gridSize="10" guides="1" tooltips="1" connect="1" arrows="1" fold="1" page="1" pageScale="1" pageWidth="827" pageHeight="1169" math="0" shadow="0">
      <root>
        <mxCell id="0" />
        <mxCell id="1" parent="0" />
        <mxCell id="vcORIH9OtQCrWUeBF2gn-3" style="edgeStyle=orthogonalEdgeStyle;rounded=0;orthogonalLoop=1;jettySize=auto;html=1;entryX=0.5;entryY=1;entryDx=0;entryDy=0;endArrow=none;endFill=0;" edge="1" parent="1" source="vcORIH9OtQCrWUeBF2gn-1" target="vcORIH9OtQCrWUeBF2gn-2">
          <mxGeometry relative="1" as="geometry" />
        </mxCell>
        <mxCell id="vcORIH9OtQCrWUeBF2gn-5" style="edgeStyle=orthogonalEdgeStyle;rounded=0;orthogonalLoop=1;jettySize=auto;html=1;entryX=0;entryY=0.5;entryDx=0;entryDy=0;endArrow=none;endFill=0;" edge="1" parent="1" source="vcORIH9OtQCrWUeBF2gn-1" target="vcORIH9OtQCrWUeBF2gn-4">
          <mxGeometry relative="1" as="geometry" />
        </mxCell>
        <mxCell id="vcORIH9OtQCrWUeBF2gn-6" value="(n,m)" style="edgeLabel;html=1;align=center;verticalAlign=middle;resizable=0;points=[];" vertex="1" connectable="0" parent="vcORIH9OtQCrWUeBF2gn-5">
          <mxGeometry x="-0.4078" relative="1" as="geometry">
            <mxPoint x="20" as="offset" />
          </mxGeometry>
        </mxCell>
        <mxCell id="vcORIH9OtQCrWUeBF2gn-1" value="Order" style="rounded=0;whiteSpace=wrap;html=1;" vertex="1" parent="1">
          <mxGeometry x="55" y="240" width="120" height="60" as="geometry" />
        </mxCell>
        <mxCell id="vcORIH9OtQCrWUeBF2gn-2" value="&lt;u&gt;&lt;font style=&quot;font-size: 8px;&quot;&gt;order_id,&lt;/font&gt;&lt;/u&gt;&lt;div&gt;&lt;font style=&quot;font-size: 8px;&quot;&gt;order_number,&amp;nbsp;&lt;/font&gt;&lt;/div&gt;&lt;div&gt;&lt;font style=&quot;font-size: 8px;&quot;&gt;day_of_the_week,&lt;/font&gt;&lt;/div&gt;&lt;div&gt;&lt;font style=&quot;font-size: 8px;&quot;&gt;hour_of_the_day,&lt;/font&gt;&lt;/div&gt;&lt;div&gt;&lt;font style=&quot;font-size: 8px;&quot;&gt;days_since_prior_order,&lt;/font&gt;&lt;/div&gt;&lt;div&gt;&lt;font style=&quot;font-size: 8px;&quot;&gt;tips,&lt;/font&gt;&lt;/div&gt;&lt;div&gt;&lt;font style=&quot;font-size: 8px;&quot;&gt;user_id&lt;/font&gt;&lt;/div&gt;" style="ellipse;whiteSpace=wrap;html=1;" vertex="1" parent="1">
          <mxGeometry x="50" y="80" width="130" height="110" as="geometry" />
        </mxCell>
        <mxCell id="vcORIH9OtQCrWUeBF2gn-8" style="edgeStyle=orthogonalEdgeStyle;rounded=0;orthogonalLoop=1;jettySize=auto;html=1;entryX=0.5;entryY=1;entryDx=0;entryDy=0;endArrow=none;endFill=0;" edge="1" parent="1" source="vcORIH9OtQCrWUeBF2gn-4" target="vcORIH9OtQCrWUeBF2gn-7">
          <mxGeometry relative="1" as="geometry" />
        </mxCell>
        <mxCell id="vcORIH9OtQCrWUeBF2gn-10" style="edgeStyle=orthogonalEdgeStyle;rounded=0;orthogonalLoop=1;jettySize=auto;html=1;entryX=0;entryY=0.5;entryDx=0;entryDy=0;endArrow=none;endFill=0;" edge="1" parent="1" source="vcORIH9OtQCrWUeBF2gn-4" target="vcORIH9OtQCrWUeBF2gn-9">
          <mxGeometry relative="1" as="geometry" />
        </mxCell>
        <mxCell id="vcORIH9OtQCrWUeBF2gn-11" value="(n,m)" style="edgeLabel;html=1;align=center;verticalAlign=middle;resizable=0;points=[];" vertex="1" connectable="0" parent="vcORIH9OtQCrWUeBF2gn-10">
          <mxGeometry x="0.1799" relative="1" as="geometry">
            <mxPoint x="-11" as="offset" />
          </mxGeometry>
        </mxCell>
        <mxCell id="vcORIH9OtQCrWUeBF2gn-4" value="Einkaufskorb" style="rhombus;whiteSpace=wrap;html=1;" vertex="1" parent="1">
          <mxGeometry x="260" y="230" width="130" height="80" as="geometry" />
        </mxCell>
        <mxCell id="vcORIH9OtQCrWUeBF2gn-7" value="&lt;font size=&quot;1&quot;&gt;&lt;u&gt;product_id,&lt;/u&gt;&lt;/font&gt;&lt;div&gt;&lt;font size=&quot;1&quot;&gt;&lt;u&gt;order_id,&lt;/u&gt;&lt;/font&gt;&lt;/div&gt;&lt;div&gt;&lt;font size=&quot;1&quot;&gt;add_to_cart_order&lt;/font&gt;&lt;/div&gt;" style="ellipse;whiteSpace=wrap;html=1;" vertex="1" parent="1">
          <mxGeometry x="265" y="110" width="120" height="80" as="geometry" />
        </mxCell>
        <mxCell id="vcORIH9OtQCrWUeBF2gn-13" style="edgeStyle=orthogonalEdgeStyle;rounded=0;orthogonalLoop=1;jettySize=auto;html=1;entryX=0.5;entryY=1;entryDx=0;entryDy=0;endArrow=none;endFill=0;" edge="1" parent="1" source="vcORIH9OtQCrWUeBF2gn-9" target="vcORIH9OtQCrWUeBF2gn-12">
          <mxGeometry relative="1" as="geometry" />
        </mxCell>
        <mxCell id="vcORIH9OtQCrWUeBF2gn-15" style="edgeStyle=orthogonalEdgeStyle;rounded=0;orthogonalLoop=1;jettySize=auto;html=1;entryX=0;entryY=0.5;entryDx=0;entryDy=0;endArrow=none;endFill=0;" edge="1" parent="1" source="vcORIH9OtQCrWUeBF2gn-9" target="vcORIH9OtQCrWUeBF2gn-14">
          <mxGeometry relative="1" as="geometry" />
        </mxCell>
        <mxCell id="vcORIH9OtQCrWUeBF2gn-16" value="(1,1)" style="edgeLabel;html=1;align=center;verticalAlign=middle;resizable=0;points=[];" vertex="1" connectable="0" parent="vcORIH9OtQCrWUeBF2gn-15">
          <mxGeometry x="-0.225" y="1" relative="1" as="geometry">
            <mxPoint x="11" y="1" as="offset" />
          </mxGeometry>
        </mxCell>
        <mxCell id="vcORIH9OtQCrWUeBF2gn-9" value="Produkt" style="rounded=0;whiteSpace=wrap;html=1;" vertex="1" parent="1">
          <mxGeometry x="460" y="240" width="120" height="60" as="geometry" />
        </mxCell>
        <mxCell id="vcORIH9OtQCrWUeBF2gn-12" value="&lt;font size=&quot;1&quot;&gt;&lt;u&gt;product_id,&lt;/u&gt;&lt;/font&gt;&lt;div&gt;&lt;font size=&quot;1&quot;&gt;product_name&lt;/font&gt;&lt;/div&gt;" style="ellipse;whiteSpace=wrap;html=1;" vertex="1" parent="1">
          <mxGeometry x="460" y="110" width="120" height="80" as="geometry" />
        </mxCell>
        <mxCell id="vcORIH9OtQCrWUeBF2gn-18" style="edgeStyle=orthogonalEdgeStyle;rounded=0;orthogonalLoop=1;jettySize=auto;html=1;entryX=0.5;entryY=0;entryDx=0;entryDy=0;endArrow=none;endFill=0;" edge="1" parent="1" source="vcORIH9OtQCrWUeBF2gn-14" target="vcORIH9OtQCrWUeBF2gn-17">
          <mxGeometry relative="1" as="geometry" />
        </mxCell>
        <mxCell id="vcORIH9OtQCrWUeBF2gn-19" value="(0,n)" style="edgeLabel;html=1;align=center;verticalAlign=middle;resizable=0;points=[];" vertex="1" connectable="0" parent="vcORIH9OtQCrWUeBF2gn-18">
          <mxGeometry x="-0.2857" y="-2" relative="1" as="geometry">
            <mxPoint x="2" y="5" as="offset" />
          </mxGeometry>
        </mxCell>
        <mxCell id="vcORIH9OtQCrWUeBF2gn-14" value="ausgestellt in" style="rhombus;whiteSpace=wrap;html=1;" vertex="1" parent="1">
          <mxGeometry x="680" y="230" width="130" height="80" as="geometry" />
        </mxCell>
        <mxCell id="vcORIH9OtQCrWUeBF2gn-23" style="edgeStyle=orthogonalEdgeStyle;rounded=0;orthogonalLoop=1;jettySize=auto;html=1;entryX=0.5;entryY=0;entryDx=0;entryDy=0;endArrow=none;endFill=0;" edge="1" parent="1" source="vcORIH9OtQCrWUeBF2gn-17" target="vcORIH9OtQCrWUeBF2gn-22">
          <mxGeometry relative="1" as="geometry" />
        </mxCell>
        <mxCell id="vcORIH9OtQCrWUeBF2gn-17" value="Aisle" style="rounded=0;whiteSpace=wrap;html=1;" vertex="1" parent="1">
          <mxGeometry x="685" y="380" width="120" height="60" as="geometry" />
        </mxCell>
        <mxCell id="vcORIH9OtQCrWUeBF2gn-22" value="&lt;font size=&quot;1&quot;&gt;&lt;u&gt;aisle_id,&lt;/u&gt;&lt;/font&gt;&lt;div&gt;&lt;font size=&quot;1&quot;&gt;aisle_name&lt;/font&gt;&lt;/div&gt;" style="ellipse;whiteSpace=wrap;html=1;" vertex="1" parent="1">
          <mxGeometry x="685" y="490" width="120" height="80" as="geometry" />
        </mxCell>
        <mxCell id="vcORIH9OtQCrWUeBF2gn-28" style="edgeStyle=orthogonalEdgeStyle;rounded=0;orthogonalLoop=1;jettySize=auto;html=1;entryX=0.5;entryY=0;entryDx=0;entryDy=0;endArrow=none;endFill=0;" edge="1" parent="1" source="vcORIH9OtQCrWUeBF2gn-24" target="vcORIH9OtQCrWUeBF2gn-27">
          <mxGeometry relative="1" as="geometry" />
        </mxCell>
        <mxCell id="vcORIH9OtQCrWUeBF2gn-29" value="(0,n)" style="edgeLabel;html=1;align=center;verticalAlign=middle;resizable=0;points=[];" vertex="1" connectable="0" parent="vcORIH9OtQCrWUeBF2gn-28">
          <mxGeometry x="-0.2857" y="1" relative="1" as="geometry">
            <mxPoint as="offset" />
          </mxGeometry>
        </mxCell>
        <mxCell id="vcORIH9OtQCrWUeBF2gn-24" value="eingeteilt in" style="rhombus;whiteSpace=wrap;html=1;" vertex="1" parent="1">
          <mxGeometry x="460" y="360" width="130" height="80" as="geometry" />
        </mxCell>
        <mxCell id="vcORIH9OtQCrWUeBF2gn-25" style="edgeStyle=orthogonalEdgeStyle;rounded=0;orthogonalLoop=1;jettySize=auto;html=1;entryX=0.542;entryY=1.012;entryDx=0;entryDy=0;entryPerimeter=0;endArrow=none;endFill=0;" edge="1" parent="1" source="vcORIH9OtQCrWUeBF2gn-24" target="vcORIH9OtQCrWUeBF2gn-9">
          <mxGeometry relative="1" as="geometry" />
        </mxCell>
        <mxCell id="vcORIH9OtQCrWUeBF2gn-26" value="(1,1)" style="edgeLabel;html=1;align=center;verticalAlign=middle;resizable=0;points=[];" vertex="1" connectable="0" parent="vcORIH9OtQCrWUeBF2gn-25">
          <mxGeometry x="0.2294" y="1" relative="1" as="geometry">
            <mxPoint x="1" y="7" as="offset" />
          </mxGeometry>
        </mxCell>
        <mxCell id="vcORIH9OtQCrWUeBF2gn-27" value="Department" style="rounded=0;whiteSpace=wrap;html=1;" vertex="1" parent="1">
          <mxGeometry x="465" y="490" width="120" height="60" as="geometry" />
        </mxCell>
        <mxCell id="vcORIH9OtQCrWUeBF2gn-31" style="edgeStyle=orthogonalEdgeStyle;rounded=0;orthogonalLoop=1;jettySize=auto;html=1;entryX=0;entryY=0.5;entryDx=0;entryDy=0;endArrow=none;endFill=0;" edge="1" parent="1" source="vcORIH9OtQCrWUeBF2gn-30" target="vcORIH9OtQCrWUeBF2gn-27">
          <mxGeometry relative="1" as="geometry" />
        </mxCell>
        <mxCell id="vcORIH9OtQCrWUeBF2gn-30" value="&lt;font size=&quot;1&quot;&gt;&lt;u&gt;department_id,&lt;/u&gt;&lt;/font&gt;&lt;div&gt;&lt;font size=&quot;1&quot;&gt;department_name&lt;/font&gt;&lt;/div&gt;" style="ellipse;whiteSpace=wrap;html=1;" vertex="1" parent="1">
          <mxGeometry x="270" y="480" width="120" height="80" as="geometry" />
        </mxCell>
      </root>
    </mxGraphModel>
  </diagram>
</mxfile>
